<svg width="36" height="28" viewBox="0 0 36 28" fill="none" xmlns="http://www.w3.org/2000/svg">
<path d="M27.4688 11.9717C29.4202 12.0665 31.2567 12.9229 32.583 14.3574C33.9144 15.7974 34.6248 17.7036 34.5596 19.6631L34.5586 19.6807L34.5596 19.6992C34.634 21.6645 33.928 23.5799 32.5957 25.0273C31.2684 26.4692 29.4263 27.3291 27.4688 27.4238C25.5148 27.329 23.6768 26.4679 22.3555 25.0254C21.0291 23.5773 20.3312 21.6626 20.415 19.7012L20.416 19.6807L20.415 19.6611C20.3405 17.7054 21.0426 15.799 22.3682 14.3584C23.6885 12.9235 25.5211 12.0666 27.4688 11.9717ZM24.9453 1.0918V1.09277L24.9561 1.09863C25.1615 1.21087 25.3424 1.36313 25.4873 1.54688C25.6322 1.73069 25.7387 1.94209 25.7998 2.16797C25.8609 2.39377 25.8751 2.62966 25.8428 2.86133C25.8104 3.09307 25.7312 3.31612 25.6104 3.5166L25.6064 3.52441L12.5186 26.1689C12.3593 26.4389 12.1323 26.6633 11.8604 26.8193C11.5884 26.9753 11.2804 27.0582 10.9668 27.0596H10.9473C10.6468 27.0723 10.3494 26.9954 10.0928 26.8389L10.0791 26.8311C9.87567 26.7154 9.69702 26.5609 9.55371 26.376C9.41043 26.1911 9.3053 25.9796 9.24414 25.7539C9.183 25.5281 9.16678 25.2915 9.19727 25.0596C9.22013 24.8858 9.26856 24.7166 9.34082 24.5576L9.42188 24.4014L22.5117 1.75293L22.5137 1.75C22.6294 1.54657 22.7846 1.36793 22.9697 1.22461C23.1547 1.08144 23.366 0.976177 23.5918 0.915039C23.8178 0.853925 24.054 0.837732 24.2861 0.868164C24.5183 0.898644 24.7427 0.974402 24.9453 1.0918ZM27.4111 15.5186C26.4054 15.6352 25.485 16.1412 24.8477 16.9277C24.2207 17.7016 23.9175 18.6864 23.998 19.6777C23.9162 20.6706 24.2196 21.6576 24.8477 22.4326C25.4851 23.2191 26.4053 23.7252 27.4111 23.8418L27.4688 23.8477L27.5264 23.8418C28.534 23.7253 29.4573 23.2216 30.1006 22.4375C30.7353 21.6639 31.0481 20.6766 30.9766 19.6797C31.0572 18.6809 30.7487 17.6888 30.1123 16.9131C29.4661 16.1254 28.5349 15.624 27.5215 15.5176L27.4668 15.5117L27.4111 15.5186ZM7.59473 0.5C9.54285 0.594545 11.3757 1.4525 12.6963 2.8877C14.0218 4.32832 14.724 6.23474 14.6494 8.19043L14.6484 8.20996L14.6494 8.23047C14.7333 10.192 14.0355 12.1066 12.709 13.5547C11.3874 14.9975 9.54913 15.8586 7.59473 15.9531C5.63758 15.8581 3.79579 14.9983 2.46875 13.5566C1.13646 12.1092 0.430436 10.1938 0.504883 8.22852L0.505859 8.20996V8.19238C0.440567 6.23291 1.15014 4.32672 2.48145 2.88672C3.80751 1.45248 5.64369 0.595089 7.59473 0.5ZM7.54395 4.04688C6.53049 4.15322 5.5994 4.65475 4.95312 5.44238C4.31544 6.21965 4.00553 7.21403 4.08789 8.21484C4.01806 9.20977 4.33043 10.1947 4.96387 10.9668C5.60714 11.7509 6.53046 12.2535 7.53809 12.3701L7.5957 12.377L7.65332 12.3701C8.65911 12.2535 9.57936 11.7484 10.2168 10.9619C10.8444 10.1874 11.1477 9.20122 11.0664 8.20898C11.1571 7.21487 10.8579 6.22398 10.2285 5.44727C9.58804 4.65696 8.65933 4.15307 7.64746 4.04688L7.5957 4.04199L7.54395 4.04688Z" fill="#0066FF" stroke="#0066FF"/>
</svg>
