<svg width="101" height="37" viewBox="0 0 101 37" fill="none" xmlns="http://www.w3.org/2000/svg">
<mask id="mask0_105_633" style="mask-type:luminance" maskUnits="userSpaceOnUse" x="0" y="0" width="101" height="37">
<path d="M0 0H100.212V36.3833H0V0.00138889V0Z" fill="white"/>
</mask>
<g mask="url(#mask0_105_633)">
<path fill-rule="evenodd" clip-rule="evenodd" d="M9.2316 24.4765L7.8176 20.0931C7.6678 19.6487 7.3864 18.5931 6.9748 16.9334H6.9244C6.7564 17.6473 6.4932 18.7015 6.1292 20.0959L4.739 24.4806H9.233L9.2316 24.4765ZM14.1218 31.4765H11.2658L9.7034 26.5459H4.27L2.779 31.4765H0L5.3858 14.689H8.7108L14.1218 31.4779V31.4765Z" fill="white"/>
</g>
<mask id="mask1_105_633" style="mask-type:luminance" maskUnits="userSpaceOnUse" x="0" y="0" width="101" height="37">
<path d="M0 0H100.212V36.3833H0" fill="white"/>
</mask>
<g mask="url(#mask1_105_633)">
<path fill-rule="evenodd" clip-rule="evenodd" d="M25.214 25.3736C25.214 24.1958 24.9508 23.2236 24.4216 22.4597C23.842 21.6639 23.0636 21.2653 22.0878 21.2653C21.427 21.2653 20.8278 21.4875 20.2888 21.925C19.7497 22.3671 19.378 22.9778 19.2346 23.6569C19.1506 23.9903 19.1086 24.2597 19.1086 24.4764V26.4958C19.1086 27.3764 19.3746 28.1208 19.915 28.7278C20.4526 29.3333 21.1512 29.6375 22.0108 29.6375C23.0188 29.6375 23.8056 29.2458 24.3684 28.4681C24.9312 27.6861 25.2126 26.6569 25.2126 25.3778M27.9426 25.2806C27.9426 27.3389 27.3868 28.9653 26.2724 30.1611C25.2742 31.2222 24.0324 31.7542 22.554 31.7542C20.958 31.7542 19.81 31.1819 19.11 30.0361V36.3889H16.436V23.3556C16.436 22.0597 16.4024 20.7333 16.338 19.3736H18.6942L18.844 21.2958H18.8944C19.7904 19.8486 21.1442 19.125 22.9642 19.125C24.3866 19.125 25.5738 19.6903 26.5244 20.8194C27.4736 21.9514 27.9496 23.4375 27.9496 25.2806" fill="white"/>
</g>
<mask id="mask2_105_633" style="mask-type:luminance" maskUnits="userSpaceOnUse" x="0" y="0" width="101" height="37">
<path d="M0 0H100.212V36.3833H0" fill="white"/>
</mask>
<g mask="url(#mask2_105_633)">
<path fill-rule="evenodd" clip-rule="evenodd" d="M39.088 25.3736C39.088 24.1958 38.822 23.2236 38.29 22.4597C37.7118 21.6639 36.9362 21.2653 35.9604 21.2653C35.2982 21.2653 34.7004 21.4875 34.16 21.925C33.6209 22.3669 33.2496 22.9777 33.1072 23.6569C33.0232 23.9903 32.9812 24.2597 32.9812 24.4764V26.4958C32.9812 27.3764 33.25 28.1208 33.7862 28.7278C34.3238 29.3319 35.0238 29.6375 35.8862 29.6375C36.8942 29.6375 37.6824 29.2458 38.2424 28.4681C38.8024 27.6861 39.0866 26.6569 39.0866 25.3778M41.8166 25.2806C41.8166 27.3389 41.2566 28.9653 40.1436 30.1611C39.144 31.2222 37.9036 31.7542 36.4252 31.7542C34.825 31.7542 33.677 31.1819 32.9812 30.0361V36.3889H30.2988V23.3556C30.2988 22.0597 30.2652 20.7333 30.2008 19.3736H32.557L32.7068 21.2958H32.7572C33.6504 19.8486 35.007 19.125 36.8284 19.125C38.2494 19.125 39.438 19.6903 40.39 20.8194C41.3378 21.9514 41.8166 23.4375 41.8166 25.2806Z" fill="white"/>
</g>
<path fill-rule="evenodd" clip-rule="evenodd" d="M57.33 26.7681C57.33 28.1986 56.8302 29.3598 55.8418 30.257C54.7526 31.2334 53.2336 31.7236 51.2848 31.7236C49.4858 31.7236 48.0424 31.3736 46.9532 30.6778L47.5734 28.4348C48.7494 29.132 50.043 29.4806 51.4472 29.4806C52.458 29.4806 53.2434 29.2542 53.8048 28.7973C54.369 28.3389 54.6518 27.7306 54.6518 26.9681C54.6518 26.2875 54.418 25.7153 53.956 25.25C53.4912 24.7861 52.724 24.3528 51.6488 23.9556C48.7172 22.8584 47.2528 21.257 47.2528 19.1473C47.2528 17.7695 47.7708 16.6431 48.8026 15.7584C49.8358 14.8806 51.2064 14.4389 52.9102 14.4389C54.4362 14.4389 55.7032 14.7056 56.7112 15.2361L56.0392 17.4306C55.09 16.9139 54.0204 16.657 52.8248 16.657C51.877 16.657 51.135 16.8903 50.6044 17.3556C50.1592 17.7695 49.9324 18.275 49.9324 18.8764C49.9324 19.5389 50.19 20.0889 50.7024 20.5195C51.1504 20.9167 51.9624 21.35 53.1342 21.8139C54.5762 22.3973 55.6332 23.0778 56.3122 23.8556C56.994 24.6361 57.3342 25.6084 57.3342 26.7681M66.2158 21.3931H63.2618V27.2681C63.2618 28.7653 63.7826 29.5111 64.8256 29.5111C65.3058 29.5111 65.7048 29.4695 66.0156 29.3861L66.0912 31.4278C65.5648 31.6264 64.8704 31.7264 64.0094 31.7264C62.9496 31.7264 62.1236 31.4014 61.5272 30.7542C60.9308 30.1042 60.6312 29.0181 60.6312 27.4903V21.3834H58.8728V19.3695H60.6326V17.1528L63.2646 16.3556V19.3695H66.2186V21.3917L66.2158 21.3931ZM76.7382 25.3889C76.7382 24.2806 76.5002 23.3292 76.0214 22.5334C75.4586 21.5723 74.6536 21.0917 73.6134 21.0917C72.5396 21.0917 71.715 21.5723 71.1564 22.5334C70.6748 23.3292 70.4354 24.2973 70.4354 25.4389C70.4354 26.55 70.6734 27.5028 71.1564 28.2973C71.736 29.2584 72.5424 29.7389 73.5924 29.7389C74.6144 29.7389 75.4166 29.2486 76.0004 28.2723C76.4904 27.4598 76.7382 26.5 76.7382 25.3889ZM79.5172 25.3278C79.5172 27.1889 78.9852 28.7167 77.9268 29.9111C76.8166 31.1403 75.3452 31.7542 73.5084 31.7542C71.736 31.7542 70.3262 31.1639 69.2748 29.9875C68.2276 28.807 67.7012 27.3209 67.7012 25.5292C67.7012 23.6542 68.2444 22.1167 69.3252 20.9223C70.4102 19.7278 71.8704 19.1278 73.7072 19.1278C75.4768 19.1278 76.8992 19.7195 77.9744 20.8959C79.0034 22.0403 79.5144 23.5167 79.5144 25.3264M88.2308 21.7403C87.9519 21.6893 87.6688 21.6642 87.3852 21.6653C86.4416 21.6653 85.7136 22.0236 85.2012 22.7403C84.7532 23.3709 84.532 24.1681 84.532 25.1292V31.4834H81.8524V23.1875C81.8524 21.7945 81.8244 20.5209 81.774 19.3764H84.1078L84.2058 21.6931H84.28C84.5642 20.8986 85.008 20.257 85.6198 19.7764C86.1773 19.3566 86.8576 19.1289 87.5574 19.1278C87.8024 19.1278 88.025 19.1445 88.2238 19.1764L88.2266 21.7431L88.2308 21.7403ZM97.6584 24.157C97.678 23.3584 97.5016 22.6709 97.1404 22.0875C96.6742 21.3403 95.9602 20.9667 95.004 20.9667C94.1262 20.9667 93.4136 21.3306 92.8704 22.0639C92.4252 22.6445 92.1592 23.3417 92.078 24.1542L97.6584 24.157ZM100.215 24.8542C100.215 25.3361 100.183 25.7431 100.117 26.0764H92.078C92.106 27.2709 92.498 28.1848 93.2428 28.8153C93.9204 29.3764 94.7968 29.6584 95.872 29.6584C97.062 29.6584 98.1484 29.4709 99.1256 29.0889L99.5456 30.9542C98.4046 31.4542 97.0536 31.7042 95.5024 31.7042C93.632 31.7042 92.1634 31.1514 91.0952 30.0486C90.0312 28.9445 89.495 27.4598 89.495 25.6014C89.495 23.7778 89.9906 22.2584 90.9846 21.0459C92.0262 19.7514 93.4346 19.1042 95.2028 19.1042C96.9416 19.1042 98.2576 19.7514 99.1508 21.0459C99.8578 22.0709 100.215 23.3417 100.215 24.8514V24.8542ZM5.53703 5.24031L4.84123 3.08753C4.76843 2.86531 4.63403 2.35142 4.42683 1.53198H4.40163C4.31763 1.88475 4.19443 2.40003 4.00963 3.08753L3.32783 5.24031H5.53703ZM7.93803 8.67781H6.53803L5.76803 6.2542H3.09683L2.36603 8.6792H0.996826L3.64283 0.429199H5.27803L7.93803 8.67781ZM14.56 2.73059L12.313 8.67781H11.032L8.86203 2.73059H10.276L11.2896 5.87642C11.4604 6.4042 11.606 6.9042 11.7152 7.38059H11.753C11.851 6.95281 11.9966 6.45003 12.1786 5.87642L13.1768 2.7292H14.5558L14.56 2.73059ZM19.152 5.7167C17.6904 5.7167 16.9582 6.07225 16.9582 6.91531C16.9582 7.54031 17.3362 7.84587 17.8612 7.84587C18.5332 7.84587 19.1534 7.33198 19.1534 6.63475V5.71809L19.152 5.7167ZM19.3382 8.6792L19.2402 7.99448H19.2024C18.8006 8.54587 18.2154 8.81392 17.4706 8.81392C16.4066 8.81392 15.6506 8.06809 15.6506 7.06392C15.6506 5.59448 16.919 4.83614 19.1142 4.83614V4.72503C19.1142 3.9417 18.6998 3.55003 17.8822 3.55003C17.3332 3.54023 16.7938 3.69409 16.3338 3.9917L16.065 3.12225C16.6152 2.7792 17.297 2.60837 18.1034 2.60837C19.6518 2.60837 20.433 3.42781 20.433 5.06948V7.25837C20.433 7.86114 20.4582 8.32781 20.517 8.68059H19.334L19.3382 8.6792Z" fill="white"/>
<mask id="mask3_105_633" style="mask-type:luminance" maskUnits="userSpaceOnUse" x="0" y="0" width="101" height="37">
<path d="M0 0H100.212V36.3833H0V0.00138889V0Z" fill="white"/>
</mask>
<g mask="url(#mask3_105_633)">
<path fill-rule="evenodd" clip-rule="evenodd" d="M24.0548 8.68065H22.7388V2.73065H24.0548V8.68065ZM23.3716 1.75009C23.2672 1.75032 23.1638 1.72974 23.0675 1.68956C22.9712 1.64938 22.8841 1.59043 22.8112 1.51621C22.7384 1.44198 22.6813 1.35399 22.6433 1.25746C22.6054 1.16093 22.5874 1.05782 22.5904 0.954259C22.5904 0.504259 22.9446 0.172314 23.3968 0.172314C23.8476 0.172314 24.213 0.505648 24.2004 0.957037C24.2004 1.43481 23.8602 1.75287 23.3716 1.75287V1.75009ZM27.7116 8.68065H26.3956V9.22161e-05H27.7116V8.68065ZM33.1296 5.71676C31.6638 5.71676 30.9316 6.07231 30.9316 6.91537C30.9316 7.54037 31.3096 7.84593 31.8346 7.84593C32.5024 7.84593 33.1254 7.33204 33.1254 6.63481V5.71815L33.1296 5.71676ZM33.3116 8.67926L33.2136 7.99454H33.1772C32.774 8.54593 32.1888 8.81398 31.444 8.81398C30.3842 8.81398 29.6268 8.06815 29.6268 7.06398C29.6268 5.59454 30.8952 4.8362 33.0918 4.8362V4.72509C33.0918 3.94176 32.676 3.55009 31.8598 3.55009C31.2718 3.55009 30.7608 3.69731 30.3114 3.99176L30.0454 3.12093C30.5942 2.78065 31.2774 2.60704 32.0824 2.60704C33.6308 2.60704 34.4134 3.42648 34.4134 5.07093V7.25843C34.4134 7.85981 34.4372 8.32509 34.4974 8.67926H33.3116ZM39.48 3.64731C38.7212 3.64731 38.0268 4.30843 38.0268 5.22648V6.26815C38.0268 7.08759 38.6498 7.7612 39.4548 7.7612C40.4432 7.7612 41.0298 6.95287 41.0298 5.66815C41.0298 4.46815 40.418 3.64731 39.4786 3.64731M39.7446 8.81398C38.9046 8.81398 38.2816 8.45843 37.8784 7.7612H37.8532L37.7762 8.67787H36.6562C36.6898 8.20287 36.7024 7.66398 36.7024 7.07648V-0.00268555H38.0212V3.59731H38.045C38.4342 2.9362 39.067 2.60565 39.935 2.60565C41.363 2.60565 42.3626 3.83204 42.3626 5.61954C42.3626 7.46676 41.2524 8.81398 39.7404 8.81398M45.6344 8.68065H44.3184V9.22161e-05H45.6344V8.68065ZM51.5956 5.08065C51.5956 4.16398 51.1336 3.51398 50.2908 3.51398C49.532 3.51398 48.9384 4.17509 48.8488 5.08065H51.5956ZM52.8038 6.02231H48.8488C48.8768 7.15009 49.6188 7.7862 50.715 7.7862C51.303 7.7862 51.8378 7.6862 52.311 7.50426L52.5168 8.42093C51.9568 8.66676 51.2988 8.78898 50.5288 8.78898C48.6766 8.78898 47.579 7.61398 47.579 5.78898C47.579 3.96676 48.7018 2.59454 50.3832 2.59454C51.891 2.59454 52.8472 3.72231 52.8472 5.4237C52.85 5.65287 52.8374 5.8612 52.801 6.02093L52.8038 6.02231ZM60.8398 3.5737C59.8878 3.5737 59.276 4.46676 59.276 5.71537C59.276 6.93759 59.9018 7.83204 60.83 7.83204C61.754 7.83204 62.377 6.87648 62.377 5.68759C62.377 4.47926 61.7666 3.57231 60.8412 3.57231M60.788 8.81398C59.0562 8.81398 57.932 7.51676 57.932 5.75426C57.932 3.91815 59.08 2.60704 60.8888 2.60704C62.5926 2.60704 63.742 3.84315 63.742 5.65981C63.742 7.52093 62.559 8.81676 60.788 8.81676M70.826 8.68204H69.51V5.26537C69.51 4.21398 69.1068 3.6862 68.313 3.6862C67.5332 3.6862 66.9942 4.35981 66.9942 5.14454V8.68204H65.6782V4.43204C65.6782 3.90704 65.6642 3.34315 65.6292 2.73204H66.7884L66.85 3.6487H66.8864C67.2364 3.00981 67.9602 2.60704 68.7624 2.60704C70.0084 2.60704 70.8246 3.5612 70.8246 5.11537V8.67926L70.826 8.68204ZM79.443 3.7237H77.994V6.61259C77.994 7.3487 78.2488 7.71537 78.7598 7.71537C78.9922 7.71537 79.1882 7.69037 79.3478 7.65426L79.3828 8.65843C79.1266 8.75565 78.7836 8.80565 78.3608 8.80565C77.3206 8.80565 76.7018 8.23065 76.7018 6.72231V3.72231H75.838V2.73065H76.7018V1.64037L77.994 1.24731V2.73065H79.443V3.72093V3.7237ZM86.4192 8.68204H85.1004V5.29315C85.1004 4.22648 84.6972 3.68759 83.9048 3.68759C83.2216 3.68759 82.5888 4.15287 82.5888 5.09593V8.68481H81.27V9.22161e-05H82.5888V3.5737H82.6168C83.0284 2.92509 83.6248 2.60704 84.3948 2.60704C85.652 2.60704 86.4192 3.58898 86.4192 5.14315V8.68204ZM91.9422 5.08482C91.9422 4.16815 91.4802 3.51537 90.6374 3.51537C89.8814 3.51537 89.2864 4.17787 89.1996 5.08482H91.9436H91.9422ZM93.1504 6.02509H89.1968C89.222 7.15287 89.964 7.78898 91.0616 7.78898C91.6496 7.78898 92.1844 7.68898 92.6576 7.50704L92.8648 8.4237C92.3048 8.66954 91.6468 8.79176 90.8768 8.79176C89.0218 8.79176 87.9256 7.61676 87.9256 5.79176C87.9256 3.96954 89.0456 2.59731 90.7298 2.59731C92.2418 2.59731 93.1938 3.72509 93.1938 5.42648C93.1994 5.65565 93.1868 5.86398 93.1518 6.0237L93.1504 6.02509Z" fill="white"/>
</g>
</svg>
