<svg width="27" height="31" viewBox="0 0 27 31" fill="none" xmlns="http://www.w3.org/2000/svg">
<path fill-rule="evenodd" clip-rule="evenodd" d="M19.432 6.83333C22.9936 6.83333 25.27 10.2639 25.27 10.2639C25.27 10.2639 21.798 12.1417 21.798 16.2167C21.798 21.0542 26.1618 22.4625 26.1618 22.4625C26.1618 22.4625 22.7178 30.5958 18.8482 30.5958C16.6726 30.5958 16.527 29.35 13.636 29.35C11.1244 29.35 10.2788 30.5944 8.3664 30.5944C4.7152 30.5944 0 22.6639 0 16.2125C0 9.51389 4.774 6.83055 7.7672 6.83055C10.395 6.83055 11.4912 8.37222 13.6052 8.37222C15.3874 8.37222 16.7902 6.83055 19.432 6.83055V6.83333ZM18.8188 0C19.341 3.28611 16.3492 7.34722 12.7708 7.21528C12.2458 3.03889 16.1028 0.225 18.816 0.00416703L18.8188 0Z" fill="white"/>
</svg>
