<svg width="105" height="38" viewBox="0 0 105 38" fill="none" xmlns="http://www.w3.org/2000/svg">
<path fill-rule="evenodd" clip-rule="evenodd" d="M5.85755 0.537598C7.03355 0.537598 7.84835 1.0626 8.37755 1.6001L7.55155 2.52093C7.12595 2.11121 6.65975 1.82926 5.87155 1.82926C4.37075 1.82926 3.36275 2.98204 3.36275 4.8626C3.36275 6.77093 4.26715 7.92371 5.96115 7.92371C6.42735 7.92371 6.89215 7.79593 7.16515 7.55149V5.74593H5.57195V4.53204H8.50775V8.21815C7.92675 8.75565 6.93135 9.21538 5.78055 9.21538C3.52935 9.21538 1.82275 7.68065 1.82275 4.90288C1.82275 2.1626 3.58115 0.537598 5.85475 0.537598M14.07 5.36121C14.07 4.36399 13.6458 3.76399 12.7792 3.76399C12.0288 3.76399 11.382 4.3126 11.2532 5.36121H14.07ZM12.74 2.6251C14.4592 2.6251 15.365 3.85149 15.365 5.60426C15.365 5.8876 15.337 6.14176 15.3006 6.29593H11.2658C11.3918 7.43482 12.1198 8.07649 13.1418 8.07649C13.6822 8.07649 14.147 7.90982 14.6118 7.61538L15.1158 8.53621C14.5096 8.93204 13.748 9.21399 12.9458 9.21399C11.186 9.21399 9.81675 7.99871 9.81675 5.9251C9.81815 3.8751 11.2532 2.6251 12.74 2.6251ZM16.814 3.94176H15.911V2.84176L16.8938 2.77788L17.0758 1.06121H18.3162V2.77788H19.9318V3.94176H18.3162V6.93621C18.3162 7.67788 18.599 8.03621 19.208 8.03621C19.4278 8.03621 19.6868 7.97232 19.866 7.89732L20.1264 8.98343C19.7764 9.09871 19.3368 9.21399 18.8328 9.21399C17.3586 9.21399 16.8168 8.29177 16.8168 6.93621V3.94176H16.814Z" fill="#E7E7E7"/>
<mask id="mask0_105_659" style="mask-type:luminance" maskUnits="userSpaceOnUse" x="0" y="0" width="105" height="38">
<path d="M0 0H104.919V37.2222H0V0Z" fill="#E7E7E7"/>
</mask>
<g mask="url(#mask0_105_659)">
<path fill-rule="evenodd" clip-rule="evenodd" d="M23.9176 2.77778H25.4044V9.06111H23.9176V2.77778ZM23.7496 0.844444C23.7496 0.344444 24.1374 0 24.6666 0C25.1986 0 25.5836 0.347222 25.5836 0.844444C25.5836 1.33056 25.1972 1.67778 24.6652 1.67778C24.1332 1.67778 23.7468 1.33056 23.7468 0.844444H23.7496ZM27.5268 3.94167H26.621V2.84167L27.6052 2.77778L27.7872 1.06111H29.0276V2.77778H30.6432V3.94167H29.0276V6.93611C29.0276 7.67778 29.3104 8.03611 29.9194 8.03611C30.1406 8.03611 30.3982 7.97222 30.5802 7.89722L30.8392 8.98333C30.4892 9.09861 30.0496 9.21389 29.5456 9.21389C28.0714 9.21389 27.5296 8.29167 27.5296 6.93611V3.94167H27.5268ZM37.226 8.01111C38.1584 8.01111 38.7268 7.17778 38.7268 5.925C38.7268 4.65833 38.1584 3.82778 37.226 3.82778C36.295 3.82778 35.742 4.65833 35.742 5.925C35.742 7.17917 36.295 8.01111 37.226 8.01111ZM37.226 2.62222C38.8164 2.62222 40.2528 3.82639 40.2528 5.925C40.2528 8.01111 38.8164 9.21667 37.226 9.21667C35.6482 9.21667 34.216 8.01111 34.216 5.925C34.216 3.82778 35.6482 2.62361 37.226 2.62361M41.7298 2.77778H42.9576L43.0612 3.62222H43.1116C43.6814 3.07222 44.3296 2.62222 45.1948 2.62222C46.5528 2.62222 47.1464 3.53194 47.1464 5.11944V9.06111H45.6596V5.31111C45.6596 4.27361 45.3656 3.89167 44.6656 3.89167C44.1084 3.89167 43.7472 4.15833 43.2152 4.66944V9.06111H41.7312V2.77778H41.7298Z" fill="#E7E7E7"/>
</g>
<mask id="mask1_105_659" style="mask-type:luminance" maskUnits="userSpaceOnUse" x="0" y="0" width="105" height="38">
<path d="M0 0H104.919V37.2222H0V0Z" fill="white"/>
</mask>
<g mask="url(#mask1_105_659)">
<path fill-rule="evenodd" clip-rule="evenodd" d="M75.9949 21.85C74.9393 21.85 74.1749 22.1417 73.7031 22.7209C73.2313 23.2987 72.9891 24.2209 72.9751 25.4848V25.832C72.9751 27.2681 73.2173 28.2959 73.7031 28.9181C74.1861 29.5375 74.9631 29.8487 76.0341 29.8487C76.9273 29.8487 77.6301 29.4875 78.1341 28.7723C78.6423 28.0584 78.8943 27.0695 78.8943 25.8112C78.8943 24.5362 78.6423 23.5556 78.1327 22.8737C77.6287 22.1903 76.9147 21.8487 75.9935 21.8487M76.2217 31.1445C75.5469 31.1445 74.9337 31.0223 74.3765 30.7764C73.8165 30.5283 73.3332 30.1366 72.9765 29.6417H72.8603C72.9373 30.2389 72.9751 30.8056 72.9751 31.3403V35.5542H71.4099V20.7223H72.6839L72.8995 22.1223H72.9751C73.3783 21.5612 73.8459 21.1598 74.3835 20.9084C74.9611 20.6515 75.5888 20.5244 76.2217 20.5362C77.5937 20.5362 78.6521 20.9987 79.3997 21.925C80.1417 22.8528 80.5141 24.157 80.5141 25.832C80.5141 27.5125 80.1361 28.8181 79.3801 29.7487C78.6199 30.6792 77.5685 31.1445 76.2217 31.1445ZM84.1429 30.9584H82.5749V16.425H84.1429V30.9584ZM89.6113 29.8667C90.5871 29.8667 91.3543 29.6028 91.9073 29.075C92.4645 28.5431 92.7431 27.8014 92.7431 26.8487V25.9278L91.1751 25.9917C89.9291 26.0362 89.0331 26.2278 88.4843 26.5667C87.9327 26.9056 87.6583 27.4362 87.6583 28.15C87.6583 28.7098 87.8263 29.1362 88.1721 29.4278C88.5151 29.7223 88.9939 29.8667 89.6113 29.8667ZM93.1477 30.9598L92.8397 29.5042H92.7627C92.2447 30.1473 91.7309 30.5806 91.2171 30.8056C90.7061 31.032 90.0649 31.1459 89.2991 31.1459C88.2729 31.1459 87.4693 30.8848 86.8869 30.3625C86.3045 29.8403 86.0133 29.0987 86.0133 28.1306C86.0133 26.0639 87.6821 24.9778 91.0253 24.8806L92.7795 24.825V24.1862C92.7795 23.3862 92.6045 22.7917 92.2545 22.4084C91.9045 22.0264 91.3445 21.8348 90.5787 21.8348C89.7177 21.8348 88.7447 22.0987 87.6569 22.6195L87.1739 21.432C87.6835 21.1598 88.2421 20.9459 88.8483 20.7875C89.4454 20.6338 90.0598 20.5559 90.6767 20.5556C91.9087 20.5556 92.8215 20.825 93.4165 21.3681C94.0101 21.9098 94.3083 22.7764 94.3083 23.9723V30.9584H93.1463L93.1477 30.9598ZM95.2197 20.7223H96.8997L99.1649 26.5612C99.6591 27.8945 99.9699 28.8556 100.089 29.4473H100.163C100.247 29.1278 100.415 28.5862 100.681 27.8153C100.94 27.0473 101.793 24.6806 103.239 20.7209H104.919L100.477 32.3778C100.034 33.5306 99.5205 34.3473 98.9311 34.8306C98.3431 35.3139 97.6207 35.5528 96.7667 35.5528C96.2879 35.5528 95.8147 35.4973 95.3499 35.3931V34.15C95.6957 34.2278 96.0835 34.2639 96.5119 34.2639C97.5857 34.2639 98.3529 33.6639 98.8121 32.4723L99.3917 31.0139L95.2197 20.7181V20.7223ZM46.2953 27.1112C46.7937 26.6167 46.8371 25.9362 46.8371 25.5487C46.8371 24.007 45.9061 21.6084 44.1113 21.6084C43.5485 21.6084 42.9423 21.8889 42.5965 22.3167C42.2283 22.7653 42.1205 23.3445 42.1205 23.9C42.1205 25.3348 42.9661 27.7139 44.8253 27.7139C45.3736 27.7008 45.8975 27.486 46.2953 27.1112ZM45.6695 31.1806C45.4973 31.1584 45.3895 31.1584 45.1739 31.1584C44.9779 31.1584 43.8089 31.2 42.9017 31.5056C42.4257 31.6723 41.0397 32.1889 41.0397 33.707C41.0397 35.225 42.5349 36.3181 44.8477 36.3181C46.9253 36.3181 48.0285 35.3348 48.0285 34.007C48.0285 32.9125 47.3145 32.3362 45.6709 31.1806H45.6695ZM47.2053 21.6737C47.7051 22.0792 48.7411 22.9375 48.7411 24.5625C48.7411 26.1487 47.8311 26.8987 46.9253 27.6042C46.6453 27.8792 46.3177 28.1848 46.3177 28.6556C46.3177 29.125 46.6439 29.382 46.8819 29.575L47.6617 30.1723C48.6137 30.9681 49.4775 31.6945 49.4775 33.1723C49.4775 35.1862 47.5063 37.2209 43.7879 37.2209C40.6519 37.2209 39.1399 35.7403 39.1399 34.157C39.1399 33.3848 39.5249 32.2959 40.8059 31.5431C42.1443 30.7292 43.9629 30.6237 44.9359 30.557C44.6307 30.1737 44.2863 29.7653 44.2863 29.1056C44.2863 28.7375 44.3941 28.5223 44.5019 28.2653C44.2639 28.2875 44.0259 28.307 43.8089 28.307C41.5185 28.307 40.2207 26.6153 40.2207 24.9459C40.2207 23.9625 40.6743 22.8695 41.6039 22.0778C42.8359 21.0723 44.3059 20.9 45.4777 20.9H49.9339L48.5479 21.6709H47.2067L47.2053 21.6737ZM36.2853 29.107C36.8033 28.4237 36.9335 27.5653 36.9335 26.732C36.9335 24.8514 36.0305 21.2598 33.3495 21.2598C32.6383 21.2598 31.9257 21.5375 31.4077 21.9875C30.5677 22.7375 30.4137 23.6778 30.4137 24.5987C30.4137 26.7139 31.4721 30.1987 34.0859 30.1987C34.9259 30.1987 35.7939 29.7917 36.2867 29.1084M33.5889 30.8417C30.1561 30.8417 28.3207 28.1889 28.3207 25.7931C28.3207 22.9945 30.6307 20.5987 33.9137 20.5987C37.0875 20.5987 39.0755 23.057 39.0755 25.6459C39.0755 28.1681 37.1099 30.8403 33.5875 30.8403M24.5813 29.107C25.0993 28.4237 25.2281 27.5653 25.2281 26.732C25.2281 24.8514 24.3209 21.2598 21.6441 21.2598C20.9301 21.2598 20.2161 21.5375 19.7009 21.9875C18.8553 22.7375 18.7069 23.6778 18.7069 24.5987C18.7069 26.7139 19.7639 30.1987 22.3777 30.1987C23.2205 30.1987 24.0829 29.7917 24.5813 29.1084M21.8821 30.8417C18.4465 30.8417 16.6097 28.1889 16.6097 25.7931C16.6097 22.9945 18.9225 20.5987 22.2055 20.5987C25.3807 20.5987 27.3673 23.057 27.3673 25.6459C27.3673 28.1681 25.4031 30.8403 21.8835 30.8403M14.9591 30.5042L11.8567 31.2125C10.5925 31.407 9.46266 31.5764 8.27266 31.5764C2.28066 31.5764 -0.00134277 27.2153 -0.00134277 23.7987C-0.00134277 19.6278 3.23266 15.7598 8.77106 15.7598C9.8933 15.7617 11.0102 15.9131 12.0919 16.2098C13.7215 16.6625 14.4817 17.2209 14.9577 17.5431L13.1559 19.2403L12.3971 19.4125L12.9403 18.5514C12.2011 17.8431 10.8543 16.532 8.29226 16.532C4.86226 16.532 2.27926 19.1153 2.27926 22.875C2.27926 26.9139 5.22906 30.7195 9.96246 30.7195C11.3541 30.7195 12.0695 30.4375 12.7205 30.1806V26.7223L9.44446 26.8931L11.1805 25.9653H15.7837L15.2181 26.507C15.0641 26.6348 15.0431 26.6764 15.0011 26.85C14.9787 27.0417 14.9563 27.6667 14.9563 27.8778V30.5028L14.9591 30.5042Z" fill="white"/>
</g>
<mask id="mask2_105_659" style="mask-type:luminance" maskUnits="userSpaceOnUse" x="0" y="0" width="105" height="38">
<path d="M0 0H104.919V37.2222H0V0Z" fill="white"/>
</mask>
<g mask="url(#mask2_105_659)">
<path fill-rule="evenodd" clip-rule="evenodd" d="M54.068 29.8846C53.3512 29.8193 53.2 29.6929 53.2 28.8513V16.6874L53.214 16.5485C53.3008 15.7957 53.5164 15.6679 54.194 15.2791H51.086L49.4564 16.0568H51.1154V29.3235C51.1154 29.7541 51.0314 29.8193 50.5302 30.4624H54.3732L55.1782 29.9943C54.8086 29.9471 54.439 29.9277 54.0694 29.8832M60.8762 23.7179C61.2864 23.5707 61.5006 23.4402 61.5006 23.1443C61.5006 22.2916 60.5304 21.3082 59.3656 21.3082C58.5018 21.3082 56.8876 21.9707 56.8876 24.2763C56.8876 24.6374 56.9296 25.0221 56.9534 25.4054L60.8734 23.7166L60.8762 23.7179ZM62.9062 30.0818C62.6682 30.2068 62.4302 30.3596 62.195 30.4638C61.481 30.7874 60.7474 30.8707 60.0992 30.8707C59.4132 30.8707 58.3324 30.8263 57.2334 30.0374C55.7018 28.9707 55.0354 27.1346 55.0354 25.5332C55.0354 22.2235 57.7542 20.6027 59.9732 20.6027C60.7488 20.6027 61.5468 20.7971 62.1964 21.1999C63.2716 21.9041 63.5516 22.8207 63.7028 23.3138L58.6376 25.3416L56.9758 25.4707C57.5148 28.1791 59.3698 29.7596 61.418 29.7596C62.5184 29.7596 63.3164 29.3749 64.05 29.0138L62.9076 30.0832L62.9062 30.0818ZM64.9852 20.7499V22.1582H64.8116V20.7499H64.3412V20.6041H65.457V20.7499H64.9852ZM66.9242 22.1582V20.736H66.92L66.479 22.1582H66.3432L65.9008 20.7374H65.8966V22.1596H65.737V20.6041H66.0072L66.4076 21.8624H66.4104L66.8052 20.6054H67.0768V22.161H66.9228L66.9242 22.1582Z" fill="white"/>
</g>
</svg>
